{"title":"Herbie 01-The Love Bug (480p-10bit)-CRF16","uid":8732350,"size":1577909743,"categoryP":"video","categoryS":"movies","magnet":"?xt=urn:btih:4602a932010470f31f8570a5e5a2bc3001bfa8d6&amp;dn=Herbie+01-The+Love+Bug+%28480p-10bit%29-CRF16&amp;tr=udp%3A%2F%2Ftracker.openbittorrent.com%3A80&amp;tr=udp%3A%2F%2Fopen.demonii.com%3A1337&amp;tr=udp%3A%2F%2Ftracker.coppersurfer.tk%3A6969&amp;tr=udp%3A%2F%2Fexodus.desync.com%3A6969","seeders":1,"leechers":0,"uploader":"AV_dude","files":1,"time":1374628227,"description":"Will play in any recent build of Media Player Classic Home Cinema. \n\nGeneral \nUnique ID : 252048818211649583177482487945985226141 (0xBD9ED62E4F2B050699CC48D0A05F759D) \nComplete name : H:OUTHerbie 01-The Love Bug (480p-10bit).mkv \nFormat : Matroska \nFormat version : Version 4 / Version 2 \nFile size : 1.47 GiB \nDuration : 1h 47mn \nOverall bit rate mode : Variable \nOverall bit rate : 1 951 Kbps \nEncoded date : UTC 2013-07-23 22:35:46 \nWriting application : mkvmerge v6.3.0 ('You can't stop me!') built on Jun 28 2013 20:09:41 \nWriting library : libebml v1.3.0 + libmatroska v1.4.0 \nAttachment : Yes \n\nVideo \nID : 1 \nFormat : AVC \nFormat/Info : Advanced Video Codec \nFormat profile : High &lt;a class=&quot;__cf_email__&quot; href=&quot;/cdn-cgi/l/email-protection&quot; data-cfemail=&quot;86b7b6c6cab5a8b6&quot;&gt;[email&amp;#160;protected]&lt;/a&gt;&lt;script cf-hash='f9e31' type=&quot;text/javascript&quot;&gt;\n/* &lt;![CDATA[ */!function(){try{var t=&quot;currentScript&quot;in document?document.currentScript:function(){for(var t=document.getElementsByTagName(&quot;script&quot;),e=t.length;e--;)if(t[e].getAttribute(&quot;cf-hash&quot;))return t[e]}();if(t&amp;&amp;t.previousSibling){var e,r,n,i,c=t.previousSibling,a=c.getAttribute(&quot;data-cfemail&quot;);if(a){for(e=&quot;&quot;,r=parseInt(a.substr(0,2),16),n=2;a.length-n;n+=2)i=parseInt(a.substr(n,2),16)^r,e+=String.fromCharCode(i);e=document.createTextNode(e),c.parentNode.replaceChild(e,c)}}}catch(u){}}();/* ]]&gt; */&lt;/script&gt; \nFormat settings, CABAC : Yes \nFormat settings, ReFrames : 4 frames \nCodec ID : V_MPEG4/ISO/AVC \nDuration : 1h 47mn \nBit rate : 1 721 Kbps \nWidth : 704 pixels \nHeight : 464 pixels \nDisplay aspect ratio : 1.85:1 \nOriginal display aspect ratio : 1.85:1 \nFrame rate mode : Constant \nFrame rate : 23.976 fps \nOriginal frame rate : 24.000 fps \nColor space : YUV \nChroma subsampling : 4:2:0 \nBit depth : 10 bits \nScan type : Progressive \nBits/(Pixel*Frame) : 0.220 \nStream size : 1.30 GiB (88%) \nWriting library : x264 core 136 r2348+704+51 d1baef6 tMod [10-bit@all X86_64] \nEncoding settings : cabac=1 / ref=4 / deblock=1:0:0 / analyse=0x3:0x133 / me=hex / subme=7 / psy=1 / fade_compensate=0.00 / psy_rd=1.00:0.00 / mixed_ref=1 / me_range=16 / chroma_me=1 / trellis=2 / 8x8dct=1 / cqm=0 / deadzone=21,11 / fast_pskip=1 / chroma_qp_offset=-2 / threads=12 / lookahead_threads=3 / sliced_threads=0 / nr=0 / decimate=1 / interlaced=0 / bluray_compat=0 / constrained_intra=0 / fgo=0 / bframes=4 / b_pyramid=2 / b_adapt=2 / b_bias=0 / direct=3 / weightb=1 / open_gop=0 / weightp=2 / keyint=240 / keyint_min=24 / scenecut=40 / intra_refresh=0 / rc_lookahead=120 / rc=crf / mbtree=1 / crf=16.0000 / qcomp=0.60 / qpmin=0:0:0 / qpmax=81:81:81 / qpstep=4 / ip_ratio=1.40 / aq=1:1.00 / aq-sensitivity=10.00 / aq-factor=1.00:1.00:1.00 / aq2=0 / aq3=0 \nLanguage : English \nDefault : Yes \nForced : No \n\nAudio \nID : 2 \nFormat : Vorbis \nFormat settings, Floor : 1 \nCodec ID : A_VORBIS \nDuration : 1h 47mn \nBit rate mode : Variable \nBit rate : 192 Kbps \nChannel(s) : 2 channels \nSampling rate : 48.0 KHz \nCompression mode : Lossy \nStream size : 148 MiB (10%) \nWriting library : libVorbis (Omnipresent) (20120203 (Omnipresent)) \nDefault : Yes \nForced : No \n\nText \nID : 3 \nFormat : VobSub \nMuxing mode : zlib \nCodec ID : S_VOBSUB \nCodec ID/Info : The same subtitle format used on DVDs \nLanguage : English \nDefault : Yes \nForced : No \n\nMenu \n00:00:00.000 : en:Chapter 01 \n00:02:59.379 : en:Chapter 02 \n00:06:08.368 : en:Chapter 03 \n00:12:38.090 : en:Chapter 04 \n00:22:51.536 : en:Chapter 05 \n00:28:15.360 : en:Chapter 06 \n00:39:04.175 : en:Chapter 07 \n00:47:40.858 : en:Chapter 08 \n00:51:09.266 : en:Chapter 09 \n00:59:41.945 : en:Chapter 10 \n01:07:58.574 : en:Chapter 11 \n01:21:24.746 : en:Chapter 12 \n01:28:15.790 : en:Chapter 13 \n01:35:05.866 : en:Chapter 14 \n01:45:26.820 : en:Chapter 15 \n\n","torrent":{"xt":"urn:btih:4602a932010470f31f8570a5e5a2bc3001bfa8d6","amp;dn":"Herbie+01-The+Love+Bug+%28480p-10bit%29-CRF16","amp;tr":["udp%3A%2F%2Ftracker.openbittorrent.com%3A80","udp%3A%2F%2Fopen.demonii.com%3A1337","udp%3A%2F%2Ftracker.coppersurfer.tk%3A6969","udp%3A%2F%2Fexodus.desync.com%3A6969"],"infoHash":"4602a932010470f31f8570a5e5a2bc3001bfa8d6","infoHashBuffer":{"type":"Buffer","data":[70,2,169,50,1,4,112,243,31,133,112,165,229,162,188,48,1,191,168,214]},"announce":[],"urlList":[]}}